<svg version="1.1" id="instagram-icon" x="0px" y="0px"
	 viewBox="0 0 50 50" style="enable-background:new 0 0 50 50;" xml:space="preserve">
<g>
	<g>
		<path d="M35.54,50H14.45C6.48,50,0,43.52,0,35.55V14.46C0,6.49,6.48,0.01,14.45,0.01h21.09c7.97,0,14.45,6.48,14.45,14.45v21.09
			C49.99,43.52,43.51,50,35.54,50z M14.45,5.04c-5.19,0-9.42,4.23-9.42,9.42v21.09c0,5.19,4.23,9.42,9.42,9.42h21.09
			c5.19,0,9.42-4.23,9.42-9.42V14.46c0-5.19-4.23-9.42-9.42-9.42H14.45z"/>
	</g>
	<g>
		<path d="M24.99,37.66c-6.98,0-12.65-5.68-12.65-12.65s5.68-12.65,12.65-12.65s12.65,5.68,12.65,12.65S31.97,37.66,24.99,37.66z
			 M24.99,16.56c-4.66,0-8.45,3.79-8.45,8.45c0,4.66,3.79,8.45,8.45,8.45c4.66,0,8.45-3.79,8.45-8.45
			C33.44,20.35,29.65,16.56,24.99,16.56z"/>
	</g>
	<circle cx="37.89" cy="11.73" r="2.95"/>
</g>
</svg>
