<svg version="1.1" id="twitter-icon" x="0px" y="0px"
	 viewBox="0 0 50 50" style="enable-background:new 0 0 50 50;" xml:space="preserve">
<path d="M24.38,17.08C11.66,16.76,3.04,6.37,3.04,6.37s-4.39,8.33,3.1,13.71c0,0-2.07,0.18-4.38-1.15c0,0-0.9,7.73,7.92,10.18
	c0,0-0.58,0.64-4.31,0.34c0,0,1.82,6.83,9.43,7.04c0,0-4.68,5.04-14.88,4.5c0,0,16.18,10.96,33.35-0.97
	c5.83-4.05,12.76-15.18,11.8-25.36c0,0,3.14-2.01,5.01-5.29c0,0-1.35,0.55-2.75,0.95c-1.16,0.33-2.35,0.52-2.85,0.54
	c0,0,3.84-2.66,4.27-5.64c0,0-4.2,2.28-6.39,2.45l-0.08,0c-1.9-2.01-4.59-3.27-7.58-3.27c-5.75,0-10.42,4.67-10.42,10.42
	c0,0.77,0.08,1.53,0.24,2.25L24.38,17.08z"/>
</svg>
