

<svg version="1.1" id="youtube-icon" x="0px" y="0px"
	 viewBox="0 0 50 50" style="enable-background:new 0 0 50 50;" xml:space="preserve">
<style type="text/css">
	.st0{fill:#FFFFFF;}
</style>
<g>
	<path d="M49.27,25c0,0,0.44-10.56-2.15-13.86C45.43,9,42.39,8.53,38.85,8.42c-6.27-0.2-13.29-0.2-13.85-0.2
		c-0.56,0-7.58,0-13.85,0.2C7.61,8.53,4.57,9,2.89,11.14C0.29,14.44,0.73,25,0.73,25l0,0c0,0-0.44,10.56,2.15,13.86
		c1.68,2.14,4.73,2.61,8.27,2.72c6.27,0.2,13.29,0.2,13.85,0.2c0.56,0,7.58,0,13.85-0.2c3.54-0.11,6.58-0.57,8.27-2.72
		C49.71,35.56,49.27,25,49.27,25L49.27,25z"/>
	<polygon class="st0" points="20.21,17.9 20.21,32.36 32.83,25.13 	"/>
</g>
</svg>
