<svg version="1.1" id="jamaican-flag" x="0px" y="0px"
	 viewBox="0 0 640 420" style="enable-background:new 0 0 640 420;" xml:space="preserve">
<style type="text/css">
	.st0{fill:#009D3C;}
	.st1{fill:#FFE800;}
	.st2{fill:#1D1D1B;}
</style>
<polygon class="st0" points="639.8,420.38 640,0.79 0,0.79 0,420.38 640,420.38 "/>
<polygon class="st1" points="0,60.61 244.1,209.37 0,360.56 0,420.38 71.38,420.38 326.93,261.52 586.92,420.38 640,420.38 
	640,355.3 409.78,212 640,66.07 640,0.79 586.92,0.79 326.93,159.85 71.38,0.79 0,0.79 0,60.82 "/>
<polygon class="st2" points="0,60.61 244.1,209.37 0,360.56 0,60.82 "/>
<polygon class="st2" points="409.57,211.8 640,66.07 640,355.3 409.78,212 "/>
</svg>
