<svg class="svg_sprite" xmlns="http://www.w3.org/2000/svg"><defs><g id="icon-home"><path class="path1" d="M32 19l-6-6v-9h-4v5l-6-6-16 16v1h4v10h10v-6h4v6h10v-10h4z"></path></g><g id="icon-twitter"><path class="path1" d="M32 6.076c-1.177 0.522-2.443 0.875-3.771 1.034 1.355-0.813 2.396-2.099 2.887-3.632-1.269 0.752-2.674 1.299-4.169 1.593-1.198-1.276-2.904-2.073-4.792-2.073-3.626 0-6.565 2.939-6.565 6.565 0 0.515 0.058 1.016 0.17 1.496-5.456-0.274-10.294-2.888-13.532-6.86-0.565 0.97-0.889 2.097-0.889 3.301 0 2.278 1.159 4.287 2.921 5.465-1.076-0.034-2.088-0.329-2.974-0.821-0.001 0.027-0.001 0.055-0.001 0.083 0 3.181 2.263 5.834 5.266 6.437-0.551 0.15-1.131 0.23-1.73 0.23-0.423 0-0.834-0.041-1.235-0.118 0.835 2.608 3.26 4.506 6.133 4.559-2.247 1.761-5.078 2.81-8.154 2.81-0.53 0-1.052-0.031-1.566-0.092 2.905 1.863 6.356 2.95 10.064 2.95 12.076 0 18.679-10.004 18.679-18.68 0-0.285-0.006-0.568-0.019-0.849 1.283-0.926 2.396-2.082 3.276-3.398z"></path></g><g id="icon-github"><path class="path1" d="M16 0c-8.837 0-16 7.163-16 16s7.163 16 16 16 16-7.163 16-16-7.163-16-16-16zM25.502 25.502c-1.235 1.235-2.672 2.204-4.272 2.881-0.406 0.172-0.819 0.323-1.238 0.453v-2.398c0-1.26-0.432-2.188-1.297-2.781 0.542-0.052 1.039-0.125 1.492-0.219s0.932-0.229 1.438-0.406 0.958-0.388 1.359-0.633 0.786-0.563 1.156-0.953 0.68-0.833 0.93-1.328 0.448-1.089 0.594-1.781 0.219-1.456 0.219-2.289c0-1.615-0.526-2.99-1.578-4.125 0.479-1.25 0.427-2.609-0.156-4.078l-0.391-0.047c-0.271-0.031-0.758 0.083-1.461 0.344s-1.492 0.688-2.367 1.281c-1.24-0.344-2.526-0.516-3.859-0.516-1.344 0-2.625 0.172-3.844 0.516-0.552-0.375-1.075-0.685-1.57-0.93s-0.891-0.411-1.188-0.5-0.573-0.143-0.828-0.164-0.419-0.026-0.492-0.016-0.125 0.021-0.156 0.031c-0.583 1.479-0.635 2.839-0.156 4.078-1.052 1.135-1.578 2.51-1.578 4.125 0 0.833 0.073 1.596 0.219 2.289s0.344 1.286 0.594 1.781 0.56 0.938 0.93 1.328 0.755 0.708 1.156 0.953 0.854 0.456 1.359 0.633 0.984 0.313 1.438 0.406 0.95 0.167 1.492 0.219c-0.854 0.583-1.281 1.51-1.281 2.781v2.445c-0.472-0.14-0.937-0.306-1.394-0.5-1.6-0.677-3.037-1.646-4.272-2.881s-2.204-2.672-2.881-4.272c-0.7-1.655-1.055-3.414-1.055-5.23s0.355-3.575 1.055-5.23c0.677-1.6 1.646-3.037 2.881-4.272s2.672-2.204 4.272-2.881c1.655-0.7 3.415-1.055 5.23-1.055s3.575 0.355 5.23 1.055c1.6 0.677 3.037 1.646 4.272 2.881s2.204 2.672 2.881 4.272c0.7 1.655 1.055 3.415 1.055 5.23s-0.355 3.575-1.055 5.23c-0.677 1.6-1.646 3.037-2.881 4.272z"></path></g><g id="icon-linkedin"><path class="path1" d="M26.625 0h-21.25c-2.956 0-5.375 2.419-5.375 5.375v21.25c0 2.956 2.419 5.375 5.375 5.375h21.25c2.956 0 5.375-2.419 5.375-5.375v-21.25c0-2.956-2.419-5.375-5.375-5.375zM12 26h-4v-14h4v14zM10 10c-1.105 0-2-0.895-2-2s0.895-2 2-2 2 0.895 2 2-0.895 2-2 2zM26 26h-4v-8c0-1.105-0.895-2-2-2s-2 0.895-2 2v8h-4v-14h4v2.483c0.825-1.133 2.086-2.483 3.5-2.483 2.485 0 4.5 2.239 4.5 5v9z"></path></g><g id="icon-arrow-left"><path class="path1" d="M23.038 27.869c0.429 0.434 0.429 1.133 0 1.566s-1.122 0.434-1.55 0l-12.528-12.651c-0.429-0.434-0.429-1.134 0-1.566l12.528-12.653c0.429-0.434 1.122-0.434 1.55 0s0.429 1.133 0 1.566l-11.424 11.869 11.424 11.869z"></path></g><g id="icon-arrow-left2"><path class="path1" d="M8.96 27.869c-0.429 0.434-0.429 1.133 0 1.566s1.122 0.434 1.55 0l12.528-12.651c0.429-0.434 0.429-1.134 0-1.566l-12.528-12.653c-0.429-0.434-1.122-0.434-1.55 0s-0.429 1.133 0 1.566l11.424 11.869-11.424 11.869z"></path></g><g id="icon-instagram"><path class="path1" d="M24.32 16c0 4.595-3.726 8.32-8.32 8.32-4.595 0-8.32-3.725-8.32-8.32 0-0.547 0.054-1.082 0.157-1.6h-5.597v11.059c0 2.374 1.923 4.301 4.301 4.301h18.918c2.374 0 4.301-1.925 4.301-4.301v-11.059h-5.595c0.101 0.518 0.155 1.053 0.155 1.6zM25.459 2.24h-18.918c-2.376 0-4.301 1.926-4.301 4.301v4.659h6.966c1.506-2.128 3.987-3.52 6.794-3.52s5.288 1.392 6.794 3.52h6.966v-4.659c0-2.374-1.926-4.301-4.301-4.301zM27.563 7.552c0 0.424-0.346 0.768-0.768 0.768h-2.302c-0.422 0-0.768-0.346-0.768-0.768v-2.304c0-0.424 0.347-0.768 0.768-0.768h2.302c0.424 0 0.768 0.346 0.768 0.768v2.304zM21.12 16c0-2.829-2.293-5.12-5.12-5.12s-5.12 2.291-5.12 5.12 2.293 5.12 5.12 5.12 5.12-2.291 5.12-5.12z"></path></g></defs></svg>